<svg width="18" height="20" viewBox="0 0 18 20" fill="none" xmlns="http://www.w3.org/2000/svg">
<path d="M17.9946 5.87784C17.9946 5.54067 17.9242 5.24632 17.7726 4.98943C17.6265 4.73789 17.4099 4.52916 17.123 4.36326C14.7248 2.99852 12.3266 1.63379 9.93384 0.269063C9.28962 -0.100217 8.66165 -0.0841614 8.02286 0.285119C7.07008 0.841715 2.29534 3.54442 0.871579 4.3579C0.286917 4.69507 0 5.20885 0 5.87249C0 8.61801 0 11.3635 0 14.1144C0 14.4409 0.070376 14.7352 0.211128 14.9868C0.357293 15.2436 0.573835 15.4631 0.871579 15.629C2.29534 16.4425 7.07008 19.1505 8.02286 19.7018C8.66165 20.0764 9.28962 20.0871 9.93384 19.7178C12.3266 18.3531 14.7302 16.9884 17.123 15.6236C17.4208 15.4524 17.6373 15.2383 17.7835 14.9814L14.1835 12.9209C13.1549 14.6977 11.2168 15.8966 8.99188 15.8966C6.76692 15.8966 4.8397 14.7031 3.80571 12.9263C3.30226 12.0593 3.01534 11.0585 3.01534 9.98809C3.01534 6.72344 5.68962 4.07961 8.99188 4.07961C12.2941 4.07961 9.58196 4.10101 9.86887 4.14383C10.0096 4.16524 10.1504 4.192 10.2857 4.21876C10.3669 4.23481 10.4481 4.25622 10.5293 4.27763C10.5726 4.28833 10.6159 4.29903 10.6647 4.31509C10.7188 4.33114 10.7729 4.3472 10.8217 4.36326C11.1194 4.45959 11.4063 4.57198 11.6824 4.71113C11.6932 4.71648 11.7095 4.72183 11.7203 4.73254C11.8232 4.78606 11.926 4.83957 12.0235 4.89844C12.0289 4.89844 12.0397 4.90915 12.0451 4.9145C12.148 4.97337 12.2508 5.03759 12.3483 5.10182C12.4295 5.15534 12.5053 5.21421 12.5865 5.26772C12.6623 5.3266 12.738 5.38011 12.8084 5.44434C12.8138 5.44969 12.8247 5.45504 12.8301 5.46039C12.9275 5.54067 13.025 5.6263 13.117 5.71193C13.1874 5.77615 13.2523 5.84038 13.3173 5.90995C13.3768 5.97417 13.4364 6.0384 13.4959 6.10262C13.6042 6.22571 13.7125 6.35951 13.8099 6.49331C13.8641 6.56288 13.9128 6.63781 13.9615 6.70738C13.9723 6.72344 13.9832 6.73949 13.994 6.75555C14.0535 6.84653 14.1131 6.93751 14.1672 7.03385L11.5633 8.51632C11.5308 8.4628 11.4983 8.40928 11.4659 8.36112C11.4659 8.35576 11.455 8.35041 11.4496 8.33971C11.428 8.31295 11.4117 8.28619 11.3901 8.25943C11.363 8.22732 11.3414 8.18985 11.3143 8.15774C11.2872 8.12563 11.2602 8.09352 11.2331 8.06141C11.206 8.0293 11.1735 7.99719 11.1465 7.96508C11.114 7.93296 11.0815 7.90085 11.049 7.86874C11.0003 7.82593 10.957 7.78311 10.9029 7.7403C10.9029 7.7403 10.8974 7.73494 10.892 7.72959C10.892 7.72959 10.8812 7.72424 10.8758 7.71889C10.8054 7.66002 10.735 7.61185 10.6592 7.55833C10.6051 7.52622 10.5564 7.48876 10.5023 7.462C10.5023 7.462 10.4914 7.462 10.486 7.45665C10.4481 7.43524 10.4048 7.41383 10.3615 7.39242C10.3344 7.37637 10.3074 7.36566 10.2803 7.34961C10.2532 7.3389 10.2262 7.32285 10.1991 7.31215C10.0583 7.24792 9.91218 7.19976 9.75519 7.15694C9.71729 7.14624 9.68481 7.14088 9.64692 7.13018C9.53865 7.10342 9.42496 7.08737 9.31128 7.07666C9.20842 7.06596 9.10015 7.06061 8.99188 7.06061C7.34617 7.06061 6.01444 8.37717 6.01444 10.0041C6.01444 11.6311 6.15519 11.0317 6.40962 11.4652C6.92391 12.3483 7.88752 12.9477 8.99188 12.9477C10.0962 12.9477 9.06226 12.9477 9.09474 12.9477C9.24632 12.9477 9.39789 12.9263 9.54947 12.8995C9.5982 12.8888 9.65233 12.8781 9.70105 12.8674C9.82556 12.8353 9.95008 12.7978 10.0638 12.755H10.0746C10.1179 12.739 10.1612 12.7176 10.2045 12.7015C10.2478 12.6801 10.2965 12.6587 10.3399 12.6373C10.4752 12.5677 10.6051 12.4874 10.7296 12.4018C10.735 12.3964 10.7459 12.3911 10.7513 12.3857C10.7513 12.3857 10.7567 12.3857 10.7621 12.3804C10.8379 12.3269 10.9083 12.268 10.9786 12.2038C11.0274 12.161 11.0707 12.1181 11.114 12.0753C11.1248 12.0646 11.1356 12.0486 11.1465 12.0379C11.1573 12.0272 11.1681 12.0165 11.1789 12.0057C11.2168 11.9629 11.2602 11.9148 11.298 11.872C11.298 11.872 11.3035 11.8666 11.3089 11.8612C11.3414 11.8184 11.3738 11.7756 11.4063 11.7328C11.4117 11.7275 11.4171 11.7167 11.4226 11.7114C11.455 11.6686 11.4821 11.6258 11.5092 11.5776C11.5146 11.5669 11.52 11.5562 11.5254 11.5508C11.5417 11.5241 11.5579 11.4973 11.5741 11.4652L12.9383 12.2466L17.7672 15.0135C17.908 14.762 17.9783 14.473 17.9783 14.1412C17.9783 14.1412 17.9783 8.65012 17.9783 5.9046L17.9946 5.87784ZM15.0171 10.3253H14.335V10.9996H13.6529V10.3253H12.9708V9.65092H13.6529V8.97658H14.335V9.65092H15.0171V10.3253ZM17.5128 10.3253H16.8307V10.9996H16.1486V10.3253H15.4665V9.65092H16.1486V8.97658H16.8307V9.65092H17.5128V10.3253Z" fill="black"/>
</svg>
