<svg width="20" height="20" viewBox="0 0 20 20" fill="none" xmlns="http://www.w3.org/2000/svg">
<path d="M9.92952 0C4.85513 0 5.16836 2.21173 5.16836 2.21173V4.50216H10.0157V5.18693H3.2498C3.2498 5.18693 0 4.82487 0 9.97245C0 15.12 2.83477 14.939 2.83477 14.939H4.52623V12.5462C4.52623 12.5462 4.43226 9.69697 7.31402 9.69697H12.1222C12.1222 9.69697 14.8238 9.74419 14.8238 7.07595V2.66824C14.8238 2.66824 15.231 0 9.92952 0ZM7.2592 1.5427C7.74471 1.5427 8.12843 1.93625 8.12843 2.41637C8.12843 2.8965 7.73688 3.29004 7.2592 3.29004C6.77369 3.29004 6.38998 2.8965 6.38998 2.41637C6.38998 1.92837 6.78152 1.5427 7.2592 1.5427ZM10.0705 20C15.1449 20 14.8316 17.7883 14.8316 17.7883V15.4978H9.98434V14.8131H16.7502C16.7502 14.8131 20 15.183 20 10.0354C20 4.88784 17.1652 5.06887 17.1652 5.06887H15.4738V7.46163C15.4738 7.46163 15.5677 10.3109 12.686 10.3109H7.87784C7.87784 10.3109 5.17619 10.2637 5.17619 12.9319V17.3396C5.17619 17.3396 4.76899 20.0079 10.0705 20.0079V20ZM12.7408 18.4573C12.2553 18.4573 11.8716 18.0638 11.8716 17.5836C11.8716 17.1035 12.2631 16.71 12.7408 16.71C13.2185 16.71 13.61 17.1035 13.61 17.5836C13.61 18.0716 13.2185 18.4573 12.7408 18.4573Z" fill="black"/>
</svg>
