<svg width="40" height="40" viewBox="0 0 40 40" fill="none" xmlns="http://www.w3.org/2000/svg">
<path d="M33.5 25.3c-.3-1.9-.5-2.3-2.4-3.8l-.6-.5c1.7-1.2 3-3.3 3.5-5.9.3-1.4.2-2.8-.2-4-.5-1.5-1.4-2.7-2.6-3.5C30.3 6.9 29.2 6.3 28 6c-.8-.2-1.6-.3-2.4-.3-.5 0-.9 0-1.4.1-1.4-1.2-3.1-2-5-2.3-.6-.1-1.2-.2-1.8-.2-2.2 0-4.2.7-5.7 2.1-1 .9-1.7 2-2.2 3.3-1 .1-1.9.4-2.7.9-1.3.8-2.2 2-2.8 3.5-.4 1.1-.6 2.3-.5 3.5 0 1.6.5 3.3 1.4 4.7.6 1 1.4 1.8 2.3 2.4.2 1.3.6 2.4 1.3 3.3.8 1.1 1.9 1.8 3.3 2.1.5.1 1 .2 1.5.2.7 0 1.3-.1 1.9-.3l.3-.1c.3.3.6.5 1 .7.9.5 1.9.7 3 .7h.4c1.1 0 2.2-.3 3.1-.9.5-.3.9-.7 1.3-1.1.4.1.9.1 1.3.1h.3c1.7 0 3.1-.5 4.2-1.4 1-.9 1.7-2.1 2-3.6.1-.4.1-.8.1-1.2z" fill="#336791"/>
<path d="M31 25.8c-.1-.8-.2-1.1-1-1.8l-1.4-1.1c1.3-.9 2.3-2.5 2.7-4.4.2-1.1.2-2.2-.1-3.2-.4-1.2-1-2.1-2-2.8-.7-.5-1.6-.9-2.5-1.1-.6-.1-1.2-.2-1.8-.2-.4 0-.7 0-1.1.1-1.1-.9-2.4-1.5-3.8-1.8-.5-.1-.9-.1-1.4-.1-1.7 0-3.2.6-4.4 1.6-.8.7-1.3 1.5-1.7 2.5-.8.1-1.5.3-2.1.7-1 .6-1.7 1.5-2.2 2.7-.3.8-.4 1.7-.4 2.7 0 1.3.4 2.6 1.1 3.7.5.7 1 1.3 1.7 1.8.1 1 .4 1.9 1 2.6.6.8 1.4 1.3 2.5 1.6.4.1.8.1 1.1.1.5 0 1-.1 1.5-.2.2.2.5.4.8.5.7.4 1.5.5 2.3.5h.3c.9 0 1.7-.2 2.4-.7.4-.2.7-.5 1-.9.3.1.7.1 1 .1h.2c1.3 0 2.4-.4 3.2-1.1.8-.7 1.3-1.6 1.5-2.8.1-.3.1-.6.1-.9z" fill="white"/>
<ellipse cx="17" cy="18" rx="2" ry="3" fill="#336791"/>
<ellipse cx="25" cy="18" rx="2" ry="3" fill="#336791"/>
</svg>
