<svg width="40" height="40" viewBox="0 0 40 40" fill="none" xmlns="http://www.w3.org/2000/svg">
<path d="M35.24 16.32C35.88 14.12 35.72 11.76 34.76 9.68C33.28 6.36 29.92 4.24 26.28 4.24C25.56 4.24 24.84 4.32 24.16 4.52C22.64 2.64 20.44 1.44 18.04 1.12C15.64 0.8 13.2 1.44 11.24 2.88C9.28 4.32 8 6.44 7.68 8.8C5.44 9.4 3.48 10.8 2.16 12.72C0.28 15.56 -0.16 19.12 0.96 22.32C0.08 24.64 0.12 27.2 1.08 29.48C2.6 32.8 5.96 34.92 9.6 34.92C10.32 34.92 11.04 34.84 11.72 34.68C13.24 36.56 15.44 37.76 17.84 38.08C18.24 38.12 18.64 38.16 19.04 38.16C21.04 38.16 22.96 37.48 24.56 36.28C26.16 35.08 27.28 33.4 27.8 31.48C30.08 31 32.08 29.68 33.4 27.8C35.48 24.76 35.88 20.88 34.56 17.52L35.24 16.32ZM19.04 35.16C17.32 35.16 15.68 34.48 14.44 33.28L14.72 33.12L22.32 28.76C22.64 28.56 22.84 28.24 22.84 27.88V17.64L26.12 19.52V28.12C26.12 31.99 22.96 35.16 19.04 35.16ZM6.36 29.72C5.72 28.6 5.44 27.32 5.56 26.04L5.84 26.2L13.44 30.56C13.76 30.76 14.16 30.76 14.48 30.56L23.76 25.2V28.96L15.64 33.64C12.2 35.64 7.8 34.44 5.76 31.04C5.56 30.64 5.4 30.2 6.36 29.72ZM4.28 13.56C4.92 12.44 5.88 11.56 7.04 11V19.84C7.04 20.2 7.24 20.52 7.56 20.72L16.84 26.08L13.56 27.96L5.56 23.32C2.16 21.32 0.96 16.92 2.92 13.48C3.32 12.8 3.76 12.16 4.28 13.56ZM28.56 19.28L19.28 13.92L22.56 12.04L30.56 16.68C32.24 17.64 33.44 19.16 33.96 20.96C34.48 22.76 34.24 24.68 33.32 26.32C32.68 27.44 31.72 28.36 30.56 28.92V20.08C30.56 19.72 30.36 19.4 30.04 19.2L28.56 19.28ZM31.76 13.96L31.48 13.8L23.88 9.44C23.56 9.24 23.16 9.24 22.84 9.44L13.56 14.8V11.04L21.68 6.36C23.36 5.4 25.32 5.16 27.12 5.68C28.92 6.2 30.44 7.44 31.36 9.08C32 10.24 32.28 11.52 32.16 12.76L31.76 13.96ZM11.76 22.36L8.48 20.48V11.88C8.48 10.08 9.16 8.36 10.36 7C11.56 5.64 13.2 4.76 15 4.52C16.32 4.36 17.68 4.56 18.88 5.12L18.6 5.28L11 9.64C10.68 9.84 10.48 10.16 10.48 10.52V22.36H11.76ZM13.56 19L18.64 16L23.76 19V25L18.64 28L13.56 25V19Z" fill="#10A37F"/>
</svg>
