<svg width="20" height="20" viewBox="0 0 20 20" fill="none" xmlns="http://www.w3.org/2000/svg">
<path d="M5.66 9.19C5.66 9.5 5.69 9.75 5.74 9.93C5.8 10.12 5.87 10.33 5.97 10.56C6.01 10.64 6.02 10.71 6.02 10.78C6.02 10.88 5.96 10.98 5.83 11.07L5.28 11.44C5.19 11.5 5.1 11.53 5.02 11.53C4.92 11.53 4.82 11.48 4.72 11.39C4.62 11.28 4.53 11.17 4.46 11.04C4.39 10.91 4.32 10.76 4.24 10.58C3.52 11.44 2.61 11.87 1.52 11.87C0.74 11.87 0.12 11.64 -0.32 11.18C-0.77 10.72 -1 10.12 -1 9.38C-1 8.59 -0.72 7.94 -0.16 7.45C0.4 6.96 1.14 6.71 2.08 6.71C2.39 6.71 2.71 6.74 3.05 6.79C3.39 6.84 3.74 6.92 4.11 7.01V6.31C4.11 5.62 3.96 5.13 3.68 4.82C3.39 4.52 2.92 4.37 2.27 4.37C1.95 4.37 1.62 4.41 1.29 4.49C0.96 4.57 0.64 4.67 0.32 4.8C0.16 4.88 0.05 4.92 -0.01 4.94C-0.07 4.96 -0.12 4.97 -0.16 4.97C-0.29 4.97 -0.36 4.87 -0.36 4.66V4.21C-0.36 4.05 -0.34 3.93 -0.28 3.86C-0.22 3.79 -0.12 3.72 0.02 3.65C0.34 3.49 0.72 3.35 1.16 3.24C1.6 3.12 2.07 3.07 2.56 3.07C3.57 3.07 4.32 3.31 4.82 3.8C5.31 4.29 5.56 5.02 5.56 6V9.19H5.66Z" transform="translate(4.5 2)" fill="black"/>
<path d="M12.72 13.5C11.06 14.72 8.62 15.37 6.52 15.37C3.55 15.37 0.88 14.27 -1.15 12.43C-1.32 12.28 -1.14 12.07 0.94 12.2C1.42 12.24 3.64 12.78 5.22 12.78C7.38 12.78 9.37 12.37 11.18 11.55C11.46 11.42 11.7 11.74 11.44 11.95L12.72 13.5Z" transform="translate(4.5 2)" fill="black"/>
</svg>
