<svg width="40" height="40" viewBox="0 0 40 40" fill="none" xmlns="http://www.w3.org/2000/svg">
<rect width="40" height="40" rx="4" fill="#3178C6"/>
<path d="M23.2 19.16V20.32H18.88V32.8H16.48V20.32H12.16V19.16C12.16 18.52 12.18 17.96 12.24 17.94C12.28 17.9 14.78 17.9 17.78 17.92L23.2 17.96V19.16Z" fill="white"/>
<path d="M31.08 19.08C31.72 19.28 32.48 19.8 32.88 20.28C33 20.44 33.32 20.88 33.36 20.96C33.36 21 31.88 21.96 31 22.48C30.96 22.52 30.8 22.32 30.6 22.04C30.12 21.36 29.6 21.08 28.76 21.04C27.56 20.96 26.76 21.6 26.76 22.6C26.76 22.88 26.8 23.04 26.92 23.28C27.16 23.8 27.64 24.12 29.16 24.76C31.92 25.92 33.08 26.6 33.72 27.56C34.44 28.6 34.56 30.28 34.04 31.48C33.44 32.8 32.16 33.64 30.28 33.92C29.68 34 28.28 34 27.64 33.92C26.2 33.68 24.84 33 24.04 32.08C23.72 31.72 23.12 30.8 23.16 30.76L23.52 30.52L24.68 29.88L25.56 29.4L25.8 29.76C26.12 30.28 26.76 30.88 27.16 31.08C28.32 31.64 29.92 31.56 30.68 30.92C31 30.64 31.12 30.36 31.12 29.92C31.12 29.52 31.08 29.36 30.88 29.04C30.6 28.64 30 28.28 28.28 27.56C26.28 26.72 25.36 26.16 24.64 25.28C24.2 24.76 23.88 24.08 23.72 23.44C23.6 22.96 23.56 21.76 23.68 21.28C24.08 19.64 25.32 18.52 27.12 18.16C27.76 18.04 29.04 18.08 29.72 18.24C30.2 18.36 30.68 18.6 31.08 19.08Z" fill="white"/>
</svg>
