<svg width="20" height="20" viewBox="0 0 20 20" fill="none" xmlns="http://www.w3.org/2000/svg">
<path d="M18.12 8.16C18.46 7.06 18.38 5.88 17.9 4.84C17.14 3.18 15.46 2.12 13.64 2.12C13.28 2.12 12.92 2.16 12.58 2.26C11.82 1.32 10.72 0.72 9.52 0.56C8.32 0.4 7.1 0.72 6.12 1.44C5.14 2.16 4.5 3.22 4.34 4.4C3.22 4.7 2.24 5.4 1.58 6.36C0.64 7.78 0.42 9.56 0.98 11.16C0.54 12.32 0.56 13.6 1.04 14.74C1.8 16.4 3.48 17.46 5.3 17.46C5.66 17.46 6.02 17.42 6.36 17.34C7.12 18.28 8.22 18.88 9.42 19.04C9.62 19.06 9.82 19.08 10.02 19.08C11.02 19.08 11.98 18.74 12.78 18.14C13.58 17.54 14.14 16.7 14.4 15.74C15.54 15.5 16.54 14.84 17.2 13.9C18.24 12.38 18.44 10.44 17.78 8.76L18.12 8.16ZM10.02 17.58C9.16 17.58 8.34 17.24 7.72 16.64L7.86 16.56L11.66 14.38C11.82 14.28 11.92 14.12 11.92 13.94V8.82L13.56 9.76V14.06C13.56 16 11.98 17.58 10.02 17.58ZM3.68 14.86C3.36 14.3 3.22 13.66 3.28 13.02L3.42 13.1L7.22 15.28C7.38 15.38 7.58 15.38 7.74 15.28L12.38 12.6V14.48L8.32 16.82C6.6 17.82 4.4 17.22 3.38 15.52C3.28 15.32 3.2 15.1 3.68 14.86ZM2.64 6.78C2.96 6.22 3.44 5.78 4.02 5.5V9.92C4.02 10.1 4.12 10.26 4.28 10.36L8.92 13.04L7.28 13.98L3.28 11.66C1.58 10.66 0.98 8.46 1.96 6.74C2.16 6.4 2.38 6.08 2.64 6.78ZM14.78 9.64L10.14 6.96L11.78 6.02L15.78 8.34C16.62 8.82 17.22 9.58 17.48 10.48C17.74 11.38 17.62 12.34 17.16 13.16C16.84 13.72 16.36 14.18 15.78 14.46V10.04C15.78 9.86 15.68 9.7 15.52 9.6L14.78 9.64ZM16.38 6.98L16.24 6.9L12.44 4.72C12.28 4.62 12.08 4.62 11.92 4.72L7.28 7.4V5.52L11.34 3.18C12.18 2.7 13.16 2.58 14.06 2.84C14.96 3.1 15.72 3.72 16.18 4.54C16.5 5.12 16.64 5.76 16.58 6.38L16.38 6.98ZM6.38 11.18L4.74 10.24V5.94C4.74 5.04 5.08 4.18 5.68 3.5C6.28 2.82 7.1 2.38 8 2.26C8.66 2.18 9.34 2.28 9.94 2.56L9.8 2.64L6 4.82C5.84 4.92 5.74 5.08 5.74 5.26V11.18H6.38ZM7.28 9.5L9.82 8L12.38 9.5V12.5L9.82 14L7.28 12.5V9.5Z" fill="black"/>
</svg>
