<svg width="40" height="40" viewBox="0 0 40 40" fill="none" xmlns="http://www.w3.org/2000/svg">
<path d="M12.4 17.06C12.4 17.68 12.47 18.17 12.58 18.53C12.71 18.91 12.86 19.32 13.05 19.77C13.12 19.92 13.15 20.07 13.15 20.21C13.15 20.4 13.04 20.6 12.8 20.79L12.01 21.52C11.84 21.64 11.67 21.7 11.52 21.7C11.33 21.7 11.14 21.6 10.95 21.42C10.76 21.21 10.59 20.99 10.46 20.74C10.33 20.47 10.19 20.17 10.05 19.82C8.62 21.54 6.82 22.39 4.64 22.39C3.08 22.39 1.85 21.93 0.97 21.01C0.09 20.09 -0.35 18.9 -0.35 17.42C-0.35 15.85 0.2 14.56 1.32 13.58C2.44 12.6 3.92 12.11 5.79 12.11C6.41 12.11 7.05 12.17 7.73 12.27C8.41 12.37 9.11 12.53 9.85 12.71V11.31C9.85 9.93 9.55 8.95 8.97 8.33C8.37 7.71 7.42 7.41 6.12 7.41C5.48 7.41 4.82 7.49 4.15 7.65C3.48 7.81 2.83 8.01 2.2 8.27C1.88 8.42 1.65 8.5 1.52 8.54C1.39 8.58 1.29 8.6 1.21 8.6C0.95 8.6 0.82 8.39 0.82 7.97V7.08C0.82 6.76 0.86 6.52 0.97 6.38C1.08 6.24 1.27 6.1 1.55 5.96C2.19 5.65 2.96 5.38 3.83 5.15C4.71 4.91 5.64 4.8 6.62 4.8C8.64 4.8 10.14 5.29 11.14 6.27C12.11 7.25 12.61 8.71 12.61 10.65V17.06H12.4Z" transform="translate(8 6)" fill="#252F3E"/>
<path d="M33.03 29.24C28.57 32.67 22.17 34.5 16.64 34.5C8.86 34.5 1.86 31.62 -3.37 26.73C-3.71 26.42 -3.34 26 -2.93 26.24C3.83 29.84 11.96 32.02 20.37 32.02C25.97 32.02 32.11 30.81 37.73 28.26C38.59 27.87 39.31 28.82 38.51 29.24H33.03Z" transform="translate(1 2)" fill="#FF9900"/>
<path d="M35.38 26.6C34.92 26.02 32.37 26.32 31.22 26.46C30.87 26.5 30.82 26.2 31.13 25.97C33.24 24.48 36.78 24.92 37.17 25.39C37.56 25.88 37.06 29.42 35.09 31.07C34.8 31.32 34.53 31.19 34.65 30.88C35.06 29.78 35.84 27.18 35.38 26.6Z" transform="translate(1 2)" fill="#FF9900"/>
</svg>
