<svg width="40" height="40" viewBox="0 0 40 40" fill="none" xmlns="http://www.w3.org/2000/svg">
<path d="M19.86 0C9.7 0 10.34 4.42 10.34 4.42V9H20.03V10.37H6.5C6.5 10.37 0 9.65 0 19.94C0 30.24 5.67 29.88 5.67 29.88H9.05V25.09C9.05 25.09 8.86 19.39 14.63 19.39H24.24C24.24 19.39 29.65 19.49 29.65 14.15V5.34C29.65 5.34 30.46 0 19.86 0ZM14.52 3.09C15.49 3.09 16.26 3.87 16.26 4.83C16.26 5.79 15.47 6.58 14.52 6.58C13.55 6.58 12.78 5.79 12.78 4.83C12.78 3.86 13.56 3.09 14.52 3.09Z" fill="#3776AB"/>
<path d="M20.14 40C30.3 40 29.66 35.58 29.66 35.58V31H19.97V29.63H33.5C33.5 29.63 40 30.37 40 20.07C40 9.78 34.33 10.14 34.33 10.14H30.95V14.92C30.95 14.92 31.14 20.62 25.37 20.62H15.76C15.76 20.62 10.35 20.53 10.35 25.86V34.68C10.35 34.68 9.54 40.02 20.14 40.02V40ZM25.48 36.91C24.51 36.91 23.74 36.13 23.74 35.17C23.74 34.21 24.53 33.42 25.48 33.42C26.44 33.42 27.22 34.21 27.22 35.17C27.22 36.14 26.44 36.91 25.48 36.91Z" fill="#FFD43B"/>
</svg>
