<svg width="20" height="20" viewBox="0 0 20 20" fill="none" xmlns="http://www.w3.org/2000/svg">
<path d="M0 10V20H20V0H0V10ZM11.6 9.58V10.16H9.44V16.4H8.24V10.16H6.08V9.58C6.08 9.26 6.09 8.98 6.12 8.97C6.14 8.95 7.39 8.95 8.89 8.96L11.6 8.98V9.58ZM15.54 9.54C15.86 9.64 16.24 9.9 16.44 10.14C16.5 10.22 16.66 10.44 16.68 10.48C16.68 10.5 15.94 10.98 15.5 11.24C15.48 11.26 15.4 11.16 15.3 11.02C15.06 10.68 14.8 10.54 14.38 10.52C13.78 10.48 13.38 10.8 13.38 11.3C13.38 11.44 13.4 11.52 13.46 11.64C13.58 11.9 13.82 12.06 14.58 12.38C15.96 12.96 16.54 13.3 16.86 13.78C17.22 14.3 17.28 15.14 17.02 15.74C16.72 16.4 16.08 16.82 15.14 16.96C14.84 17 14.14 17 13.82 16.96C13.1 16.84 12.42 16.5 12.02 16.04C11.86 15.86 11.56 15.4 11.58 15.38L11.76 15.26L12.34 14.94L12.78 14.7L12.9 14.88C13.06 15.14 13.38 15.44 13.58 15.54C14.16 15.82 14.96 15.78 15.34 15.46C15.5 15.32 15.56 15.18 15.56 14.96C15.56 14.76 15.54 14.68 15.44 14.52C15.3 14.32 15 14.14 14.14 13.78C13.14 13.36 12.68 13.08 12.32 12.64C12.1 12.38 11.94 12.04 11.86 11.72C11.8 11.48 11.78 10.88 11.84 10.64C12.04 9.82 12.66 9.26 13.56 9.08C13.88 9.02 14.52 9.04 14.86 9.12C15.1 9.18 15.34 9.3 15.54 9.54Z" fill="black"/>
</svg>
