<svg width="20" height="20" viewBox="0 0 20 20" fill="none" xmlns="http://www.w3.org/2000/svg">
<path d="M17.13 7.38C16.85 5.54 15.95 4.02 14.68 3.02C13.4 2.02 11.8 1.5 10.08 1.5C9.24 1.5 8.4 1.66 7.62 1.96C6.98 1.42 6.18 1.1 5.3 1.06C4.1 1 3 1.56 2.28 2.56C1.56 3.56 1.36 4.82 1.72 5.96C0.66 7.16 0.04 8.72 0 10.38C-0.04 12.22 0.62 13.94 1.86 15.24C3.08 16.52 4.76 17.24 6.58 17.24C6.88 17.24 7.18 17.22 7.48 17.18C8.18 17.82 9.06 18.2 10 18.3C10.16 18.32 10.32 18.34 10.48 18.34C11.52 18.34 12.5 17.94 13.26 17.24C13.58 17.26 13.9 17.24 14.22 17.18C15.46 16.92 16.48 16.16 17.08 15.08C17.78 13.82 17.92 12.3 17.48 10.88C17.68 9.76 17.54 8.56 17.13 7.38ZM10.08 3C11.34 3 12.52 3.38 13.44 4.08C14.08 4.58 14.58 5.22 14.92 5.96C14.18 5.52 13.36 5.26 12.5 5.18C12.32 5.16 12.14 5.16 11.96 5.16C11.08 5.16 10.24 5.4 9.52 5.82C9.06 5.5 8.54 5.28 7.98 5.16L7.5 5.06C7.36 5.02 7.22 5 7.08 4.98C7.36 4.24 7.82 3.58 8.44 3.08C8.94 2.66 9.54 3 10.08 3Z" fill="black"/>
</svg>
